Coordinates
version=1
nRows=5
nColumns=46
inDegrees=yes

Units are S.I. units (second, meters, Newtons, ...)
Angles are in degrees.

endheader
time	pelvis_tilt	pelvis_list	pelvis_rotation	pelvis_tx	pelvis_ty	pelvis_tz	bb_angle	bb_tx	bb_ty	bb_tz	hip_flexion_r	hip_adduction_r	hip_rotation_r	knee_angle_r	knee_angle_r_beta	ankle_angle_r	subtalar_angle_r	mtp_angle_r	crank_angle_r	hip_flexion_l	hip_adduction_l	hip_rotation_l	knee_angle_l	knee_angle_l_beta	ankle_angle_l	subtalar_angle_l	mtp_angle_l	crank_angle_l	lumbar_extension	lumbar_bending	lumbar_rotation	arm_flex_r	arm_add_r	arm_rot_r	elbow_flex_r	pro_sup_r	wrist_flex_r	wrist_dev_r	arm_flex_l	arm_add_l	arm_rot_l	elbow_flex_l	pro_sup_l	wrist_flex_l	wrist_dev_l
      0.00000000	    -17.70927053	     -7.32669665	     -3.20965593	      0.11867986	      1.13525040	     -0.25727423	      0.00000000	      0.50000000	      0.00000000	      0.25000000	     95.22697229	     -4.79299380	     -8.35530158	    106.77170077	      1.86351773	      6.84715017	     -4.34322663	      0.00000000	      0.00000000	     45.08698814	    -12.82298295	     -0.20234364	     47.31603013	      0.82582051	     11.31653611	     -1.91324604	      0.00000000	      0.00000000	    -53.95161049	      5.36852156	     11.08419079	     89.84361082	      3.37641147	     19.44218832	     35.81394075	     24.66782507	      0.00000000	      0.00000000	     89.76148871	      3.91023601	     21.21976284	     31.73988940	     24.79364749	      0.00000000	      0.00000000
      0.00500000	    -17.69059343	     -7.41385714	     -3.14192872	      0.11856621	      1.13528015	     -0.25756707	      0.00000000	      0.50000000	      0.00000000	      0.25000000	     95.12787407	     -4.86695774	     -8.47537987	    106.39612016	      1.85696261	      7.01453776	     -4.15180676	      0.00000000	      0.00000000	     45.29153669	    -12.84348727	      0.02830747	     47.96873721	      0.83721240	     11.32516700	     -1.96797721	      0.00000000	      0.00000000	    -53.97559603	      5.54859280	     11.15202732	     89.84507388	      3.62934075	     18.71840289	     35.26497106	     27.10510602	      0.00000000	      0.00000000	     89.76209690	      4.14720353	     20.28578730	     31.18059355	     27.03857792	      0.00000000	      0.00000000
      0.01000000	    -17.74615580	     -7.38315739	     -3.13765491	      0.11845048	      1.13505170	     -0.25762115	      0.00000000	      0.50000000	      0.00000000	      0.25000000	     95.16406479	     -4.84900020	     -8.45404954	    106.03593858	      1.85067625	      7.10517076	     -4.07778419	      0.00000000	      0.00000000	     45.55865468	    -12.81545165	      0.13459786	     48.65570640	      0.84920228	     11.38492696	     -2.07562396	      0.00000000	      0.00000000	    -53.90708866	      5.57203619	     11.11469235	     89.84464243	      3.63899061	     18.75493425	     35.09135140	     28.07512769	      0.00000000	      0.00000000	     89.76311242	      4.05368503	     20.33662234	     30.97868191	     27.97506858	      0.00000000	      0.00000000
      0.01500000	    -17.79020862	     -7.40024592	     -3.11818594	      0.11838577	      1.13487036	     -0.25765702	      0.00000000	      0.50000000	      0.00000000	      0.25000000	     95.16673925	     -4.85977160	     -8.52055759	    105.67537431	      1.84438322	      7.14771208	     -4.02151232	      0.00000000	      0.00000000	     45.83858662	    -12.84266540	      0.23724295	     49.36504085	      0.86158250	     11.41471007	     -2.16798840	      0.00000000	      0.00000000	    -53.79105524	      5.60642267	     11.14012806	     89.84493754	      2.91339332	     21.38134330	     36.84873769	     18.19952626	      0.00000000	      0.00000000	     89.76511920	      3.46157790	     23.56114803	     32.23437980	     19.70675150	      0.00000000	      0.00000000
      0.02000000	    -17.83069681	     -7.36195676	     -3.13950277	      0.11840340	      1.13473372	     -0.25767371	      0.00000000	      0.50000000	      0.00000000	      0.25000000	     95.14997308	     -4.80104050	     -8.49886404	    105.28922294	      1.83764361	      7.21499274	     -3.99865764	      0.00000000	      0.00000000	     46.07042523	    -12.84984343	      0.27706975	     50.03979821	      0.87335924	     11.49780736	     -2.15964145	      0.00000000	      0.00000000	    -53.73215986	      5.58222035	     11.11801022	     89.84565392	      2.72320753	     21.89105298	     35.78837671	     23.35735344	      0.00000000	      0.00000000	     89.76672389	      3.32812845	     23.95178560	     31.31459871	     24.22573499	      0.00000000	      0.00000000
